<svg width="179" height="96" viewBox="0 0 179 96" fill="none" xmlns="http://www.w3.org/2000/svg">
<path d="M35.3 10V63.6L22.8 85.4H10.3V72.8H22.8V35.2L10.3 56.7V31.6L22.8 10H35.3ZM60.2001 10C55.0001 10 50.2 12.8 47.6 17.3L39.4001 31.6V56.8L58.6 23.7C59 23.1 59.6 22.7 60.3 22.7C61.8 22.7 62.8 24.3 62 25.7L27.3 85.4H66.1L73.4001 72.8H49.1L72.7 31.9C78.3 22.2 71.4001 10 60.2001 10ZM81.1 68.9C86 68.9 89.8 67.6 92.4 64.9C95.1 62.3 96.5 58.5 96.5 53.6V34.8H87.4V53.3C87.4 58.5 85.3 61.2 81.2 61.2C77 61.2 75 58.6 75 53.3V35.9L65.7001 52V53.6C65.7001 58.5 67.1001 62.3 69.8001 64.9C72.5001 67.5 76.3 68.9 81.1 68.9ZM121.7 35.4V52.9L106.7 34.8H99.6V68.9H108.7V50.7L123.7 68.8H130.8V35.4H121.7ZM150.5 68.9C154 68.9 157.1 68.2 159.8 66.7C162.5 65.2 164.7 63.2 166.3 60.6C167.9 58 168.7 55.1 168.7 51.8C168.7 48.5 167.9 45.6 166.3 43C164.7 40.4 162.6 38.4 159.8 36.9C157.1 35.4 153.9 34.7 150.5 34.7C147.1 34.7 143.9 35.4 141.2 36.9C138.5 38.4 136.2 40.4 134.7 43C133.1 45.6 132.3 48.5 132.3 51.8C132.3 55.1 133.1 58 134.7 60.6C136.3 63.2 138.4 65.2 141.2 66.7C143.9 68.1 147 68.9 150.5 68.9ZM150.5 61.2C148.9 61.2 147.3 60.8 146 60C144.7 59.2 143.6 58.1 142.8 56.7C142 55.3 141.6 53.6 141.6 51.8C141.6 50 142 48.3 142.8 46.9C143.6 45.5 144.6 44.4 146 43.6C147.3 42.8 148.8 42.4 150.5 42.4C152.2 42.4 153.7 42.8 155 43.6C156.3 44.4 157.4 45.5 158.2 46.9C159 48.3 159.4 50 159.4 51.8C159.4 53.6 159 55.3 158.2 56.7C157.4 58.1 156.4 59.2 155 60C153.6 60.8 152.2 61.2 150.5 61.2Z" fill="#282827"/>
<path d="M87.4 76.2C86.6 75.8 85.7 75.6 84.7 75.6H81V85.2H84.8C85.8 85.2 86.7 85 87.5 84.6C88.3 84.2 88.9 83.6 89.3 82.9C89.7 82.2 89.9 81.3 89.9 80.4C89.9 79.5 89.7 78.6 89.3 77.9C88.8 77.2 88.2 76.6 87.4 76.2ZM88.6 82.5C88.2 83.1 87.7 83.6 87 84C86.3 84.4 85.5 84.5 84.6 84.5H81.6V76.2H84.6C85.5 76.2 86.3 76.4 87 76.7C87.7 77.1 88.2 77.5 88.6 78.2C89 78.8 89.1 79.5 89.1 80.4C89.1 81.3 89 81.9 88.6 82.5Z" fill="#282827"/>
<path d="M92.8 80.6H97.9V80H92.8V76.2H98.5V75.6H92.1V85.2H98.7V84.5H92.8V80.6Z" fill="#282827"/>
<path d="M104.4 84.3L100.6 75.6H99.8L104.1 85.2H104.8L109.1 75.6H108.3L104.4 84.3Z" fill="#282827"/>
<path d="M121.1 81.8L119.2 75.6H116.7L114.6 81.7L112.7 75.6H109.9L113 85.2H115.9L117.8 79.3L119.7 85.2H122.6L125.7 75.6H123.1L121.1 81.8Z" fill="#282827"/>
<path d="M135.1 76.8C134.6 76.3 134.1 76 133.4 75.8C132.8 75.6 132 75.4 131.3 75.4C130.5 75.4 129.8 75.5 129.2 75.8C128.6 76 128 76.4 127.5 76.8C127 77.2 126.6 77.8 126.4 78.4C126.1 79 126 79.7 126 80.4C126 81.1 126.1 81.8 126.4 82.4C126.7 83 127 83.5 127.5 84C128 84.5 128.5 84.8 129.2 85C129.8 85.2 130.6 85.4 131.3 85.4C132.1 85.4 132.8 85.3 133.4 85C134 84.8 134.6 84.4 135.1 84C135.6 83.6 135.9 83 136.2 82.4C136.5 81.8 136.6 81.1 136.6 80.4C136.6 79.7 136.5 79 136.2 78.4C136 77.8 135.6 77.3 135.1 76.8ZM133.7 81.5C133.6 81.8 133.4 82.1 133.2 82.4C133 82.6 132.7 82.8 132.4 83C132.1 83.1 131.7 83.2 131.4 83.2C131 83.2 130.7 83.1 130.4 83C130.1 82.9 129.8 82.7 129.6 82.4C129.4 82.2 129.2 81.9 129.1 81.5C129 81.2 128.9 80.8 128.9 80.4C128.9 80 129 79.6 129.1 79.3C129.2 79 129.4 78.7 129.6 78.4C129.8 78.2 130.1 78 130.4 77.8C130.7 77.7 131.1 77.6 131.4 77.6C131.8 77.6 132.1 77.7 132.4 77.8C132.7 77.9 133 78.1 133.2 78.4C133.4 78.6 133.6 78.9 133.7 79.3C133.8 79.6 133.9 80 133.9 80.4C133.9 80.8 133.8 81.2 133.7 81.5Z" fill="#282827"/>
<path d="M146.2 81C146.5 80.5 146.7 79.8 146.7 79.1C146.7 78.4 146.5 77.7 146.2 77.2C145.9 76.7 145.4 76.3 144.7 76C144.1 75.7 143.3 75.6 142.4 75.6H138V85.2H140.7V82.6H142.2L143.9 85.2H146.8L144.7 82.2C145.4 81.9 145.9 81.5 146.2 81ZM143.6 78.1C143.9 78.3 144 78.7 144 79.1C144 79.5 143.9 79.9 143.6 80.1C143.3 80.3 142.9 80.5 142.3 80.5H140.8V77.7H142.3C142.9 77.7 143.3 77.8 143.6 78.1Z" fill="#282827"/>
<path d="M157.7 75.6H154.7L151 79.6V75.6H148.3V85.2H151V82.8L152 81.7L154.7 85.2H157.9L153.8 79.8L157.7 75.6Z" fill="#282827"/>
<path d="M166.1 81C165.9 80.7 165.6 80.4 165.3 80.2C165 80 164.6 79.8 164.2 79.7C163.8 79.6 163.4 79.5 163 79.4C162.6 79.3 162.3 79.2 161.9 79.2C161.6 79.1 161.3 79 161.1 78.9C160.9 78.8 160.8 78.6 160.8 78.4C160.8 78.2 160.8 78.1 161 78C161.1 77.9 161.3 77.8 161.5 77.7C161.7 77.6 162 77.6 162.4 77.6C162.8 77.6 163.3 77.7 163.7 77.8C164.1 77.9 164.6 78.1 165.1 78.4L165.9 76.4C165.4 76.1 164.9 75.9 164.3 75.8C163.7 75.7 163.1 75.6 162.4 75.6C161.5 75.6 160.7 75.7 160 76C159.3 76.3 158.9 76.7 158.6 77.1C158.3 77.6 158.1 78.1 158.1 78.7C158.1 79.2 158.2 79.6 158.4 80C158.6 80.3 158.9 80.6 159.2 80.8C159.5 81 159.9 81.2 160.3 81.3C160.7 81.4 161.1 81.5 161.5 81.6C161.9 81.7 162.2 81.8 162.6 81.8C162.9 81.9 163.2 82 163.4 82.1C163.6 82.2 163.7 82.4 163.7 82.6C163.7 82.8 163.6 82.9 163.5 83C163.4 83.1 163.2 83.2 163 83.3C162.8 83.4 162.5 83.4 162.1 83.4C161.5 83.4 161 83.3 160.4 83.1C159.8 82.9 159.3 82.7 158.9 82.4L158 84.4C158.5 84.7 159 85 159.8 85.2C160.5 85.4 161.3 85.5 162.1 85.5C163.1 85.5 163.8 85.4 164.5 85.1C165.2 84.8 165.6 84.4 165.9 84C166.2 83.5 166.4 83 166.4 82.5C166.4 81.8 166.3 81.3 166.1 81Z" fill="#282827"/>
</svg>
