<svg width="65" height="31" viewBox="0 0 65 31" fill="none" xmlns="http://www.w3.org/2000/svg">
<path d="M10.2588 0V22.0371L5.12942 31H0V25.8196H5.12942V10.3607L0 19.2003V8.88064L5.12942 0H10.2588ZM20.4766 0C18.3428 0 16.3731 1.15119 15.3062 3.00133L11.9413 8.88064V19.2414L19.8201 5.63263C19.9842 5.38594 20.2304 5.22149 20.5177 5.22149C21.1332 5.22149 21.5436 5.87931 21.2153 6.45491L6.97601 31H22.8977L25.8933 25.8196H15.9217L25.6061 9.00398C27.904 5.01592 25.0726 0 20.4766 0ZM29.053 24.2162C31.0638 24.2162 32.6231 23.6817 33.69 22.5716C34.798 21.5027 35.3725 19.9403 35.3725 17.9257V10.1963H31.6383V17.8024C31.6383 19.9403 30.7765 21.0504 29.0941 21.0504C27.3706 21.0504 26.5499 19.9814 26.5499 17.8024V10.6485L22.7336 17.2679V17.9257C22.7336 19.9403 23.3081 21.5027 24.416 22.5716C25.524 23.6406 27.0833 24.2162 29.053 24.2162ZM45.7134 10.443V17.6379L39.5581 10.1963H36.6446V24.2162H40.3788V16.7334L46.5341 24.1751H49.4476V10.443H45.7134ZM57.5316 24.2162C58.9678 24.2162 60.2399 23.9284 61.3479 23.3117C62.4558 22.695 63.3586 21.8727 64.0152 20.8037C64.6717 19.7348 65 18.5424 65 17.1857C65 15.8289 64.6717 14.6366 64.0152 13.5676C63.3586 12.4987 62.4968 11.6764 61.3479 11.0597C60.2399 10.443 58.9268 10.1552 57.5316 10.1552C56.1364 10.1552 54.8232 10.443 53.7153 11.0597C52.6073 11.6764 51.6635 12.4987 51.048 13.5676C50.3914 14.6366 50.0631 15.8289 50.0631 17.1857C50.0631 18.5424 50.3914 19.7348 51.048 20.8037C51.7045 21.8727 52.5663 22.695 53.7153 23.3117C54.8232 23.8873 56.0953 24.2162 57.5316 24.2162ZM57.5316 21.0504C56.875 21.0504 56.2184 20.8859 55.685 20.557C55.1515 20.2281 54.7001 19.7759 54.3718 19.2003C54.0436 18.6247 53.8794 17.9257 53.8794 17.1857C53.8794 16.4456 54.0436 15.7467 54.3718 15.1711C54.7001 14.5955 55.1105 14.1432 55.685 13.8143C56.2184 13.4854 56.834 13.321 57.5316 13.321C58.2292 13.321 58.8447 13.4854 59.3782 13.8143C59.9116 14.1432 60.363 14.5955 60.6913 15.1711C61.0196 15.7467 61.1837 16.4456 61.1837 17.1857C61.1837 17.9257 61.0196 18.6247 60.6913 19.2003C60.363 19.7759 59.9527 20.2281 59.3782 20.557C58.8037 20.8859 58.2292 21.0504 57.5316 21.0504Z" fill="#282827"/>
</svg>
